<svg xmlns="http://www.w3.org/2000/svg" viewBox="0 0 512 512" style="height: 512px; width: 512px;"><defs><filter id="shadow-1" height="300%" width="300%" x="-100%" y="-100%"><feFlood flood-color="rgba(55, 111, 175, 1)" result="flood"></feFlood><feComposite in="flood" in2="SourceGraphic" operator="atop" result="composite"></feComposite><feGaussianBlur in="composite" stdDeviation="15" result="blur"></feGaussianBlur><feOffset dx="0" dy="0" result="offset"></feOffset><feComposite in="SourceGraphic" in2="offset" operator="over"></feComposite></filter><radialGradient id="gradient-0"><stop offset="0%" stop-color="#24538a" stop-opacity="1"></stop><stop offset="100%" stop-color="#304450" stop-opacity="1"></stop></radialGradient><radialGradient id="gradient-1"><stop offset="0%" stop-color="#c9c9c9" stop-opacity="1"></stop><stop offset="100%" stop-color="#c9c9c9" stop-opacity="1"></stop></radialGradient></defs><path d="M0 0h512v512H0z" fill="url(#gradient-0)"></path><g class="" transform="translate(0,0)" style="touch-action: none;"><path d="M159.4 26.23c-51.4.6-79.6 56.3-79.3 86.97 1.5 47.3 34.2 79.4 74.8 114.8 35.4 30.8 76.1 63.2 100.9 110 .1-.1.1-.2.2-.3.1.1.1.2.2.3 24.8-46.8 65.5-79.2 100.9-110 40.6-35.4 73.3-67.5 74.8-114.8.3-30.67-27.9-86.37-79.3-86.97-38-.5-82.6 25.7-96.6 67.7-14-42-58.6-68.2-96.6-67.7zM23 375v114h466V375H23zm18 18h430v78H334v-60H41v-18z" fill="url(#gradient-1)" filter="url(#shadow-1)"></path></g><g font-family="Arial, Helvetica, sans-serif" font-size="45" font-style="normal" font-weight="bold" text-anchor="middle" class="" transform="translate(231,454)" style="touch-action: none;"><text stroke="rgba(0, 0, 0, 1)" stroke-width="11.25" data-darkreader-inline-stroke="" style="--darkreader-inline-stroke:#514b40;"><tspan x="0" y="0">Hitpoints</tspan></text><text fill="rgba(255, 255, 255, 1)" data-darkreader-inline-fill="" style="--darkreader-inline-fill:#88847c;"><tspan x="0" y="0">Hitpoints</tspan></text></g></svg>